<mxfile host="app.diagrams.net" modified="2023-06-25T01:48:17.094Z" agent="Mozilla/5.0 (Macintosh; Intel Mac OS X 10_15_7) AppleWebKit/605.1.15 (KHTML, like Gecko) Version/16.5 Safari/605.1.15" etag="vRetDTzh9kEwwl0oMB2o" version="21.5.0" type="device">
  <diagram name="Page-1" id="LaANpKzHhaJ-SP3x5uuU">
    <mxGraphModel dx="1354" dy="586" grid="0" gridSize="10" guides="1" tooltips="1" connect="1" arrows="1" fold="1" page="0" pageScale="1" pageWidth="827" pageHeight="1169" background="none" math="0" shadow="0">
      <root>
        <mxCell id="0" />
        <mxCell id="1" parent="0" />
        <mxCell id="wc3QQ4p2gTh6pkiNsGsL-9" value="" style="edgeStyle=orthogonalEdgeStyle;rounded=1;orthogonalLoop=1;jettySize=auto;html=1;entryX=0.5;entryY=0;entryDx=0;entryDy=0;exitX=0.75;exitY=1;exitDx=0;exitDy=0;shadow=1;fixDash=0;" parent="1" source="wc3QQ4p2gTh6pkiNsGsL-2" target="wc3QQ4p2gTh6pkiNsGsL-7" edge="1">
          <mxGeometry relative="1" as="geometry">
            <mxPoint x="640" y="300" as="targetPoint" />
          </mxGeometry>
        </mxCell>
        <mxCell id="wc3QQ4p2gTh6pkiNsGsL-11" value="" style="edgeStyle=orthogonalEdgeStyle;rounded=1;orthogonalLoop=1;jettySize=auto;html=1;entryX=0.5;entryY=0;entryDx=0;entryDy=0;exitX=0.25;exitY=1;exitDx=0;exitDy=0;shadow=1;fixDash=0;" parent="1" source="wc3QQ4p2gTh6pkiNsGsL-2" target="wc3QQ4p2gTh6pkiNsGsL-6" edge="1">
          <mxGeometry relative="1" as="geometry">
            <mxPoint x="360" y="300" as="targetPoint" />
          </mxGeometry>
        </mxCell>
        <mxCell id="wc3QQ4p2gTh6pkiNsGsL-2" value="Discovery" style="rounded=1;whiteSpace=wrap;html=1;shadow=1;fixDash=0;" parent="1" vertex="1">
          <mxGeometry x="690" y="250" width="120" height="60" as="geometry" />
        </mxCell>
        <mxCell id="wc3QQ4p2gTh6pkiNsGsL-31" value="" style="edgeStyle=orthogonalEdgeStyle;rounded=1;orthogonalLoop=1;jettySize=auto;html=1;shadow=1;fixDash=0;" parent="1" source="wc3QQ4p2gTh6pkiNsGsL-6" target="wc3QQ4p2gTh6pkiNsGsL-27" edge="1">
          <mxGeometry relative="1" as="geometry" />
        </mxCell>
        <mxCell id="wc3QQ4p2gTh6pkiNsGsL-6" value="Authentication" style="rounded=1;whiteSpace=wrap;html=1;shadow=1;fixDash=0;" parent="1" vertex="1">
          <mxGeometry x="-1" y="450" width="120" height="60" as="geometry" />
        </mxCell>
        <mxCell id="sAvkdL1R1kglVFHzMzW9-45" value="" style="edgeStyle=orthogonalEdgeStyle;rounded=1;orthogonalLoop=1;jettySize=auto;html=1;entryX=0.5;entryY=0;entryDx=0;entryDy=0;shadow=1;fixDash=0;" parent="1" source="wc3QQ4p2gTh6pkiNsGsL-7" target="hLY5KDKK4z4dmNMS2t85-39" edge="1">
          <mxGeometry relative="1" as="geometry">
            <mxPoint x="1230" y="600" as="targetPoint" />
          </mxGeometry>
        </mxCell>
        <mxCell id="wc3QQ4p2gTh6pkiNsGsL-7" value="M1, M2, M3 ..." style="rounded=1;whiteSpace=wrap;html=1;shadow=1;fixDash=0;" parent="1" vertex="1">
          <mxGeometry x="1170" y="451" width="120" height="60" as="geometry" />
        </mxCell>
        <mxCell id="wc3QQ4p2gTh6pkiNsGsL-13" value="" style="endArrow=none;html=1;rounded=1;entryX=0.5;entryY=1;entryDx=0;entryDy=0;exitX=0.5;exitY=0;exitDx=0;exitDy=0;shadow=1;fixDash=0;" parent="1" source="wc3QQ4p2gTh6pkiNsGsL-14" target="wc3QQ4p2gTh6pkiNsGsL-2" edge="1">
          <mxGeometry width="50" height="50" relative="1" as="geometry">
            <mxPoint x="490" y="360" as="sourcePoint" />
            <mxPoint x="540" y="500" as="targetPoint" />
          </mxGeometry>
        </mxCell>
        <mxCell id="wc3QQ4p2gTh6pkiNsGsL-14" value="Config Server" style="rounded=1;whiteSpace=wrap;html=1;shadow=1;fixDash=0;" parent="1" vertex="1">
          <mxGeometry x="690" y="460" width="120" height="60" as="geometry" />
        </mxCell>
        <mxCell id="wc3QQ4p2gTh6pkiNsGsL-15" value="" style="endArrow=none;html=1;rounded=1;entryX=0.5;entryY=0;entryDx=0;entryDy=0;exitX=0.5;exitY=1;exitDx=0;exitDy=0;shadow=1;fixDash=0;" parent="1" source="wc3QQ4p2gTh6pkiNsGsL-14" target="wc3QQ4p2gTh6pkiNsGsL-16" edge="1">
          <mxGeometry width="50" height="50" relative="1" as="geometry">
            <mxPoint x="490" y="420" as="sourcePoint" />
            <mxPoint x="500" y="320" as="targetPoint" />
            <Array as="points" />
          </mxGeometry>
        </mxCell>
        <mxCell id="sAvkdL1R1kglVFHzMzW9-28" value="" style="edgeStyle=orthogonalEdgeStyle;rounded=1;orthogonalLoop=1;jettySize=auto;html=1;entryX=0.5;entryY=0;entryDx=0;entryDy=0;shadow=1;fixDash=0;" parent="1" source="wc3QQ4p2gTh6pkiNsGsL-16" target="hLY5KDKK4z4dmNMS2t85-36" edge="1">
          <mxGeometry relative="1" as="geometry">
            <mxPoint x="750" y="800" as="targetPoint" />
          </mxGeometry>
        </mxCell>
        <mxCell id="wc3QQ4p2gTh6pkiNsGsL-16" value="Gateway" style="rounded=1;whiteSpace=wrap;html=1;shadow=1;fixDash=0;" parent="1" vertex="1">
          <mxGeometry x="690" y="660" width="120" height="60" as="geometry" />
        </mxCell>
        <mxCell id="wc3QQ4p2gTh6pkiNsGsL-19" value="" style="edgeStyle=orthogonalEdgeStyle;rounded=1;orthogonalLoop=1;jettySize=auto;html=1;shadow=1;fixDash=0;" parent="1" source="wc3QQ4p2gTh6pkiNsGsL-18" target="wc3QQ4p2gTh6pkiNsGsL-16" edge="1">
          <mxGeometry relative="1" as="geometry" />
        </mxCell>
        <mxCell id="wc3QQ4p2gTh6pkiNsGsL-18" value="Frontend" style="shape=umlActor;verticalLabelPosition=bottom;verticalAlign=top;html=1;outlineConnect=0;rounded=1;shadow=1;fixDash=0;" parent="1" vertex="1">
          <mxGeometry x="890" y="660" width="30" height="60" as="geometry" />
        </mxCell>
        <mxCell id="wc3QQ4p2gTh6pkiNsGsL-47" value="" style="edgeStyle=orthogonalEdgeStyle;rounded=1;orthogonalLoop=1;jettySize=auto;html=1;entryX=0.5;entryY=0;entryDx=0;entryDy=0;shadow=1;fixDash=0;" parent="1" source="wc3QQ4p2gTh6pkiNsGsL-26" target="hLY5KDKK4z4dmNMS2t85-34" edge="1">
          <mxGeometry relative="1" as="geometry">
            <mxPoint x="400" y="690" as="targetPoint" />
          </mxGeometry>
        </mxCell>
        <mxCell id="wc3QQ4p2gTh6pkiNsGsL-26" value="Logout" style="rounded=1;whiteSpace=wrap;html=1;shadow=1;fixDash=0;" parent="1" vertex="1">
          <mxGeometry x="340" y="570" width="120" height="60" as="geometry" />
        </mxCell>
        <mxCell id="wc3QQ4p2gTh6pkiNsGsL-41" value="" style="edgeStyle=orthogonalEdgeStyle;rounded=1;orthogonalLoop=1;jettySize=auto;html=1;entryX=0.5;entryY=0;entryDx=0;entryDy=0;shadow=1;fixDash=0;" parent="1" source="wc3QQ4p2gTh6pkiNsGsL-27" target="hLY5KDKK4z4dmNMS2t85-19" edge="1">
          <mxGeometry relative="1" as="geometry">
            <mxPoint x="59" y="710" as="targetPoint" />
          </mxGeometry>
        </mxCell>
        <mxCell id="wc3QQ4p2gTh6pkiNsGsL-27" value="Login" style="rounded=1;whiteSpace=wrap;html=1;shadow=1;fixDash=0;" parent="1" vertex="1">
          <mxGeometry x="-1" y="570" width="120" height="60" as="geometry" />
        </mxCell>
        <mxCell id="wc3QQ4p2gTh6pkiNsGsL-39" value="" style="edgeStyle=orthogonalEdgeStyle;rounded=1;orthogonalLoop=1;jettySize=auto;html=1;shadow=1;fixDash=0;" parent="1" source="wc3QQ4p2gTh6pkiNsGsL-28" target="wc3QQ4p2gTh6pkiNsGsL-38" edge="1">
          <mxGeometry relative="1" as="geometry" />
        </mxCell>
        <mxCell id="wc3QQ4p2gTh6pkiNsGsL-28" value="Register" style="rounded=1;whiteSpace=wrap;html=1;shadow=1;fixDash=0;" parent="1" vertex="1">
          <mxGeometry x="-230" y="570" width="120" height="60" as="geometry" />
        </mxCell>
        <mxCell id="wc3QQ4p2gTh6pkiNsGsL-29" value="" style="endArrow=classic;html=1;rounded=1;exitX=1;exitY=0.5;exitDx=0;exitDy=0;entryX=0.5;entryY=0;entryDx=0;entryDy=0;shadow=1;fixDash=0;" parent="1" source="wc3QQ4p2gTh6pkiNsGsL-6" target="wc3QQ4p2gTh6pkiNsGsL-26" edge="1">
          <mxGeometry width="50" height="50" relative="1" as="geometry">
            <mxPoint x="239" y="710" as="sourcePoint" />
            <mxPoint x="289" y="660" as="targetPoint" />
            <Array as="points">
              <mxPoint x="400" y="480" />
            </Array>
          </mxGeometry>
        </mxCell>
        <mxCell id="wc3QQ4p2gTh6pkiNsGsL-30" value="" style="endArrow=classic;html=1;rounded=1;exitX=0;exitY=0.5;exitDx=0;exitDy=0;entryX=0.5;entryY=0;entryDx=0;entryDy=0;shadow=1;fixDash=0;" parent="1" source="wc3QQ4p2gTh6pkiNsGsL-6" target="wc3QQ4p2gTh6pkiNsGsL-28" edge="1">
          <mxGeometry width="50" height="50" relative="1" as="geometry">
            <mxPoint x="129" y="490" as="sourcePoint" />
            <mxPoint x="229" y="580" as="targetPoint" />
            <Array as="points">
              <mxPoint x="-170" y="480" />
            </Array>
          </mxGeometry>
        </mxCell>
        <mxCell id="wc3QQ4p2gTh6pkiNsGsL-33" value="" style="edgeStyle=orthogonalEdgeStyle;rounded=1;orthogonalLoop=1;jettySize=auto;html=1;shadow=1;fixDash=0;" parent="1" source="wc3QQ4p2gTh6pkiNsGsL-32" target="wc3QQ4p2gTh6pkiNsGsL-26" edge="1">
          <mxGeometry relative="1" as="geometry" />
        </mxCell>
        <mxCell id="wc3QQ4p2gTh6pkiNsGsL-32" value="Frontend" style="shape=umlActor;verticalLabelPosition=bottom;verticalAlign=top;html=1;outlineConnect=0;rounded=1;shadow=1;fixDash=0;" parent="1" vertex="1">
          <mxGeometry x="150" y="570" width="30" height="60" as="geometry" />
        </mxCell>
        <mxCell id="wc3QQ4p2gTh6pkiNsGsL-35" value="" style="edgeStyle=orthogonalEdgeStyle;rounded=1;orthogonalLoop=1;jettySize=auto;html=1;shadow=1;fixDash=0;" parent="1" source="wc3QQ4p2gTh6pkiNsGsL-34" target="wc3QQ4p2gTh6pkiNsGsL-27" edge="1">
          <mxGeometry relative="1" as="geometry" />
        </mxCell>
        <mxCell id="wc3QQ4p2gTh6pkiNsGsL-34" value="Frontend" style="shape=umlActor;verticalLabelPosition=bottom;verticalAlign=top;html=1;outlineConnect=0;rounded=1;shadow=1;fixDash=0;" parent="1" vertex="1">
          <mxGeometry x="-90" y="570" width="30" height="60" as="geometry" />
        </mxCell>
        <mxCell id="wc3QQ4p2gTh6pkiNsGsL-37" value="" style="edgeStyle=orthogonalEdgeStyle;rounded=1;orthogonalLoop=1;jettySize=auto;html=1;shadow=1;fixDash=0;" parent="1" source="wc3QQ4p2gTh6pkiNsGsL-36" target="wc3QQ4p2gTh6pkiNsGsL-28" edge="1">
          <mxGeometry relative="1" as="geometry" />
        </mxCell>
        <mxCell id="wc3QQ4p2gTh6pkiNsGsL-36" value="Frontend" style="shape=umlActor;verticalLabelPosition=bottom;verticalAlign=top;html=1;outlineConnect=0;rounded=1;shadow=1;fixDash=0;" parent="1" vertex="1">
          <mxGeometry x="-300" y="570" width="30" height="60" as="geometry" />
        </mxCell>
        <mxCell id="sAvkdL1R1kglVFHzMzW9-2" value="" style="edgeStyle=orthogonalEdgeStyle;rounded=1;orthogonalLoop=1;jettySize=auto;html=1;strokeColor=#FF3333;exitX=0;exitY=0.5;exitDx=0;exitDy=0;shadow=1;fixDash=0;" parent="1" source="hLY5KDKK4z4dmNMS2t85-30" target="sAvkdL1R1kglVFHzMzW9-1" edge="1">
          <mxGeometry relative="1" as="geometry" />
        </mxCell>
        <mxCell id="hLY5KDKK4z4dmNMS2t85-31" value="" style="edgeStyle=orthogonalEdgeStyle;rounded=1;orthogonalLoop=1;jettySize=auto;html=1;shadow=1;fixDash=0;" parent="1" source="wc3QQ4p2gTh6pkiNsGsL-38" target="hLY5KDKK4z4dmNMS2t85-30" edge="1">
          <mxGeometry relative="1" as="geometry" />
        </mxCell>
        <mxCell id="wc3QQ4p2gTh6pkiNsGsL-38" value="Create User" style="rounded=1;whiteSpace=wrap;html=1;shadow=1;fixDash=0;" parent="1" vertex="1">
          <mxGeometry x="-230" y="710" width="120" height="60" as="geometry" />
        </mxCell>
        <mxCell id="wc3QQ4p2gTh6pkiNsGsL-43" value="" style="edgeStyle=orthogonalEdgeStyle;rounded=1;orthogonalLoop=1;jettySize=auto;html=1;exitX=0.5;exitY=1;exitDx=0;exitDy=0;entryX=0.5;entryY=0;entryDx=0;entryDy=0;shadow=1;fixDash=0;" parent="1" source="hLY5KDKK4z4dmNMS2t85-19" target="sAvkdL1R1kglVFHzMzW9-9" edge="1">
          <mxGeometry relative="1" as="geometry">
            <mxPoint x="59" y="770" as="sourcePoint" />
            <mxPoint x="100" y="1130" as="targetPoint" />
          </mxGeometry>
        </mxCell>
        <mxCell id="wc3QQ4p2gTh6pkiNsGsL-45" value="" style="edgeStyle=orthogonalEdgeStyle;rounded=1;orthogonalLoop=1;jettySize=auto;html=1;entryX=0.5;entryY=0;entryDx=0;entryDy=0;shadow=1;fixDash=0;" parent="1" source="wc3QQ4p2gTh6pkiNsGsL-42" target="wc3QQ4p2gTh6pkiNsGsL-48" edge="1">
          <mxGeometry relative="1" as="geometry">
            <mxPoint x="59" y="990" as="targetPoint" />
          </mxGeometry>
        </mxCell>
        <mxCell id="wc3QQ4p2gTh6pkiNsGsL-69" value="" style="edgeStyle=orthogonalEdgeStyle;rounded=1;orthogonalLoop=1;jettySize=auto;html=1;entryX=1;entryY=0.5;entryDx=0;entryDy=0;entryPerimeter=0;exitX=0;exitY=0.5;exitDx=0;exitDy=0;strokeColor=#FFFF66;shadow=1;fixDash=0;" parent="1" source="wc3QQ4p2gTh6pkiNsGsL-42" target="wc3QQ4p2gTh6pkiNsGsL-62" edge="1">
          <mxGeometry relative="1" as="geometry">
            <mxPoint x="-120" y="1390" as="targetPoint" />
            <Array as="points">
              <mxPoint x="2" y="1060" />
              <mxPoint x="-70" y="1060" />
              <mxPoint x="-70" y="1430" />
            </Array>
          </mxGeometry>
        </mxCell>
        <mxCell id="wc3QQ4p2gTh6pkiNsGsL-42" value="Set Logged In" style="rounded=1;whiteSpace=wrap;html=1;shadow=1;fixDash=0;" parent="1" vertex="1">
          <mxGeometry x="-1" y="1050" width="120" height="60" as="geometry" />
        </mxCell>
        <mxCell id="sAvkdL1R1kglVFHzMzW9-84" value="" style="edgeStyle=orthogonalEdgeStyle;rounded=1;orthogonalLoop=1;jettySize=auto;html=1;entryX=0;entryY=0.5;entryDx=0;entryDy=0;exitX=0;exitY=0.5;exitDx=0;exitDy=0;strokeColor=#66FFFF;shadow=1;fixDash=0;" parent="1" source="wc3QQ4p2gTh6pkiNsGsL-48" target="sAvkdL1R1kglVFHzMzW9-81" edge="1">
          <mxGeometry relative="1" as="geometry">
            <mxPoint x="-81" y="1029.9999999999998" as="targetPoint" />
          </mxGeometry>
        </mxCell>
        <mxCell id="hLY5KDKK4z4dmNMS2t85-24" value="" style="edgeStyle=orthogonalEdgeStyle;rounded=1;orthogonalLoop=1;jettySize=auto;html=1;shadow=1;fixDash=0;" parent="1" source="wc3QQ4p2gTh6pkiNsGsL-48" target="wc3QQ4p2gTh6pkiNsGsL-50" edge="1">
          <mxGeometry relative="1" as="geometry" />
        </mxCell>
        <mxCell id="wc3QQ4p2gTh6pkiNsGsL-48" value="Send login event" style="rounded=1;whiteSpace=wrap;html=1;strokeColor=#33FFFF;shadow=1;fixDash=0;" parent="1" vertex="1">
          <mxGeometry x="-1" y="1150" width="120" height="60" as="geometry" />
        </mxCell>
        <mxCell id="wc3QQ4p2gTh6pkiNsGsL-50" value="Token" style="rounded=1;whiteSpace=wrap;html=1;shadow=1;fixDash=0;" parent="1" vertex="1">
          <mxGeometry x="-1" y="1250" width="120" height="60" as="geometry" />
        </mxCell>
        <mxCell id="wc3QQ4p2gTh6pkiNsGsL-55" value="" style="edgeStyle=orthogonalEdgeStyle;rounded=1;orthogonalLoop=1;jettySize=auto;html=1;shadow=1;fixDash=0;" parent="1" target="wc3QQ4p2gTh6pkiNsGsL-54" edge="1">
          <mxGeometry relative="1" as="geometry">
            <mxPoint x="400" y="750" as="sourcePoint" />
          </mxGeometry>
        </mxCell>
        <mxCell id="sAvkdL1R1kglVFHzMzW9-17" value="" style="edgeStyle=orthogonalEdgeStyle;rounded=1;orthogonalLoop=1;jettySize=auto;html=1;strokeColor=#FF3333;entryX=0.5;entryY=0;entryDx=0;entryDy=0;exitX=1;exitY=0.5;exitDx=0;exitDy=0;shadow=1;fixDash=0;" parent="1" source="hLY5KDKK4z4dmNMS2t85-34" target="sAvkdL1R1kglVFHzMzW9-15" edge="1">
          <mxGeometry relative="1" as="geometry">
            <mxPoint x="440" y="879.9999999999998" as="targetPoint" />
            <mxPoint x="460" y="720" as="sourcePoint" />
          </mxGeometry>
        </mxCell>
        <mxCell id="wc3QQ4p2gTh6pkiNsGsL-57" value="" style="edgeStyle=orthogonalEdgeStyle;rounded=1;orthogonalLoop=1;jettySize=auto;html=1;shadow=1;fixDash=0;" parent="1" source="wc3QQ4p2gTh6pkiNsGsL-54" target="wc3QQ4p2gTh6pkiNsGsL-56" edge="1">
          <mxGeometry relative="1" as="geometry" />
        </mxCell>
        <mxCell id="wc3QQ4p2gTh6pkiNsGsL-54" value="Get User" style="rounded=1;whiteSpace=wrap;html=1;shadow=1;fixDash=0;" parent="1" vertex="1">
          <mxGeometry x="340" y="840" width="120" height="60" as="geometry" />
        </mxCell>
        <mxCell id="wc3QQ4p2gTh6pkiNsGsL-59" value="" style="edgeStyle=orthogonalEdgeStyle;rounded=1;orthogonalLoop=1;jettySize=auto;html=1;shadow=1;fixDash=0;" parent="1" source="wc3QQ4p2gTh6pkiNsGsL-56" target="wc3QQ4p2gTh6pkiNsGsL-58" edge="1">
          <mxGeometry relative="1" as="geometry" />
        </mxCell>
        <mxCell id="wc3QQ4p2gTh6pkiNsGsL-66" value="" style="edgeStyle=orthogonalEdgeStyle;rounded=1;orthogonalLoop=1;jettySize=auto;html=1;exitX=0;exitY=0.5;exitDx=0;exitDy=0;entryX=1;entryY=0;entryDx=0;entryDy=52.5;entryPerimeter=0;strokeColor=#FFFF66;shadow=1;fixDash=0;" parent="1" source="wc3QQ4p2gTh6pkiNsGsL-56" target="wc3QQ4p2gTh6pkiNsGsL-62" edge="1">
          <mxGeometry relative="1" as="geometry">
            <mxPoint x="200" y="1160" as="sourcePoint" />
            <mxPoint x="150" y="1440" as="targetPoint" />
            <Array as="points">
              <mxPoint x="250" y="1000" />
              <mxPoint x="250" y="1450" />
              <mxPoint x="-140" y="1450" />
            </Array>
          </mxGeometry>
        </mxCell>
        <mxCell id="wc3QQ4p2gTh6pkiNsGsL-56" value="Set Loggout Out" style="rounded=1;whiteSpace=wrap;html=1;shadow=1;fixDash=0;" parent="1" vertex="1">
          <mxGeometry x="340" y="970" width="120" height="60" as="geometry" />
        </mxCell>
        <mxCell id="wc3QQ4p2gTh6pkiNsGsL-61" value="" style="edgeStyle=orthogonalEdgeStyle;rounded=1;orthogonalLoop=1;jettySize=auto;html=1;shadow=1;fixDash=0;" parent="1" source="wc3QQ4p2gTh6pkiNsGsL-58" target="wc3QQ4p2gTh6pkiNsGsL-60" edge="1">
          <mxGeometry relative="1" as="geometry" />
        </mxCell>
        <mxCell id="sAvkdL1R1kglVFHzMzW9-86" value="" style="edgeStyle=orthogonalEdgeStyle;rounded=1;orthogonalLoop=1;jettySize=auto;html=1;entryX=0;entryY=0.75;entryDx=0;entryDy=0;exitX=0;exitY=0.5;exitDx=0;exitDy=0;strokeColor=#66FFFF;shadow=1;fixDash=0;" parent="1" source="wc3QQ4p2gTh6pkiNsGsL-58" target="sAvkdL1R1kglVFHzMzW9-80" edge="1">
          <mxGeometry relative="1" as="geometry">
            <mxPoint x="160" y="1180" as="targetPoint" />
          </mxGeometry>
        </mxCell>
        <mxCell id="wc3QQ4p2gTh6pkiNsGsL-58" value="Send logout event" style="rounded=1;whiteSpace=wrap;html=1;strokeColor=#33FFFF;shadow=1;fixDash=0;" parent="1" vertex="1">
          <mxGeometry x="340" y="1130" width="120" height="60" as="geometry" />
        </mxCell>
        <mxCell id="wc3QQ4p2gTh6pkiNsGsL-60" value="Logged Out" style="rounded=1;whiteSpace=wrap;html=1;shadow=1;fixDash=0;" parent="1" vertex="1">
          <mxGeometry x="340" y="1260" width="120" height="60" as="geometry" />
        </mxCell>
        <mxCell id="wc3QQ4p2gTh6pkiNsGsL-62" value="" style="shape=cylinder3;whiteSpace=wrap;html=1;boundedLbl=1;backgroundOutline=1;size=15;rounded=1;shadow=1;fixDash=0;" parent="1" vertex="1">
          <mxGeometry x="-200" y="1390" width="60" height="80" as="geometry" />
        </mxCell>
        <mxCell id="sAvkdL1R1kglVFHzMzW9-1" value="403&lt;br&gt;FORBIDDEN" style="rounded=1;whiteSpace=wrap;html=1;strokeColor=#FF3333;shadow=1;fixDash=0;" parent="1" vertex="1">
          <mxGeometry x="-345" y="920" width="120" height="60" as="geometry" />
        </mxCell>
        <mxCell id="sAvkdL1R1kglVFHzMzW9-4" value="403&lt;br&gt;FORBIDDEN" style="rounded=1;whiteSpace=wrap;html=1;strokeColor=#FF3333;shadow=1;fixDash=0;" parent="1" vertex="1">
          <mxGeometry x="170" y="710" width="120" height="60" as="geometry" />
        </mxCell>
        <mxCell id="hLY5KDKK4z4dmNMS2t85-22" value="" style="edgeStyle=orthogonalEdgeStyle;rounded=1;orthogonalLoop=1;jettySize=auto;html=1;shadow=1;fixDash=0;" parent="1" source="sAvkdL1R1kglVFHzMzW9-9" target="hLY5KDKK4z4dmNMS2t85-21" edge="1">
          <mxGeometry relative="1" as="geometry" />
        </mxCell>
        <mxCell id="sAvkdL1R1kglVFHzMzW9-9" value="Generate Token" style="rounded=1;whiteSpace=wrap;html=1;shadow=1;fixDash=0;" parent="1" vertex="1">
          <mxGeometry x="-1" y="840" width="120" height="60" as="geometry" />
        </mxCell>
        <mxCell id="sAvkdL1R1kglVFHzMzW9-15" value="401&lt;br&gt;UNAUTHORIZED" style="rounded=1;whiteSpace=wrap;html=1;strokeColor=#FF3333;shadow=1;fixDash=0;" parent="1" vertex="1">
          <mxGeometry x="510" y="850" width="120" height="60" as="geometry" />
        </mxCell>
        <mxCell id="sAvkdL1R1kglVFHzMzW9-23" value="AUTHORIZATION" style="text;html=1;strokeColor=none;fillColor=none;align=center;verticalAlign=middle;whiteSpace=wrap;rounded=1;shadow=1;fixDash=0;" parent="1" vertex="1">
          <mxGeometry x="150" y="540" width="140" height="30" as="geometry" />
        </mxCell>
        <mxCell id="sAvkdL1R1kglVFHzMzW9-26" value="AUTHORIZATION" style="text;html=1;strokeColor=none;fillColor=none;align=center;verticalAlign=middle;whiteSpace=wrap;rounded=1;shadow=1;fixDash=0;" parent="1" vertex="1">
          <mxGeometry x="760" y="630" width="140" height="30" as="geometry" />
        </mxCell>
        <mxCell id="sAvkdL1R1kglVFHzMzW9-30" value="" style="edgeStyle=orthogonalEdgeStyle;rounded=1;orthogonalLoop=1;jettySize=auto;html=1;shadow=1;fixDash=0;" parent="1" target="sAvkdL1R1kglVFHzMzW9-29" edge="1">
          <mxGeometry relative="1" as="geometry">
            <mxPoint x="750" y="860" as="sourcePoint" />
          </mxGeometry>
        </mxCell>
        <mxCell id="sAvkdL1R1kglVFHzMzW9-38" value="" style="edgeStyle=orthogonalEdgeStyle;rounded=1;orthogonalLoop=1;jettySize=auto;html=1;strokeColor=#FF3333;exitX=1;exitY=0.5;exitDx=0;exitDy=0;shadow=1;fixDash=0;" parent="1" source="hLY5KDKK4z4dmNMS2t85-36" target="sAvkdL1R1kglVFHzMzW9-37" edge="1">
          <mxGeometry relative="1" as="geometry">
            <mxPoint x="810" y="830" as="sourcePoint" />
          </mxGeometry>
        </mxCell>
        <mxCell id="sAvkdL1R1kglVFHzMzW9-32" value="" style="edgeStyle=orthogonalEdgeStyle;rounded=1;orthogonalLoop=1;jettySize=auto;html=1;shadow=1;fixDash=0;" parent="1" source="sAvkdL1R1kglVFHzMzW9-29" target="sAvkdL1R1kglVFHzMzW9-31" edge="1">
          <mxGeometry relative="1" as="geometry" />
        </mxCell>
        <mxCell id="sAvkdL1R1kglVFHzMzW9-29" value="Get User" style="rounded=1;whiteSpace=wrap;html=1;shadow=1;fixDash=0;" parent="1" vertex="1">
          <mxGeometry x="690" y="940" width="120" height="60" as="geometry" />
        </mxCell>
        <mxCell id="sAvkdL1R1kglVFHzMzW9-34" value="" style="edgeStyle=orthogonalEdgeStyle;rounded=1;orthogonalLoop=1;jettySize=auto;html=1;entryX=0.5;entryY=0;entryDx=0;entryDy=0;shadow=1;fixDash=0;" parent="1" source="sAvkdL1R1kglVFHzMzW9-31" target="hLY5KDKK4z4dmNMS2t85-38" edge="1">
          <mxGeometry relative="1" as="geometry">
            <mxPoint x="750" y="1220" as="targetPoint" />
          </mxGeometry>
        </mxCell>
        <mxCell id="sAvkdL1R1kglVFHzMzW9-31" value="Get Services" style="rounded=1;whiteSpace=wrap;html=1;shadow=1;fixDash=0;" parent="1" vertex="1">
          <mxGeometry x="690" y="1080" width="120" height="60" as="geometry" />
        </mxCell>
        <mxCell id="sAvkdL1R1kglVFHzMzW9-36" value="" style="edgeStyle=orthogonalEdgeStyle;rounded=1;orthogonalLoop=1;jettySize=auto;html=1;exitX=0.5;exitY=1;exitDx=0;exitDy=0;shadow=1;fixDash=0;" parent="1" source="hLY5KDKK4z4dmNMS2t85-38" target="sAvkdL1R1kglVFHzMzW9-35" edge="1">
          <mxGeometry relative="1" as="geometry">
            <mxPoint x="750" y="1280" as="sourcePoint" />
          </mxGeometry>
        </mxCell>
        <mxCell id="sAvkdL1R1kglVFHzMzW9-41" value="" style="edgeStyle=orthogonalEdgeStyle;rounded=1;orthogonalLoop=1;jettySize=auto;html=1;entryX=0.5;entryY=0;entryDx=0;entryDy=0;strokeColor=#FF3333;exitX=1;exitY=0.5;exitDx=0;exitDy=0;shadow=1;fixDash=0;" parent="1" source="hLY5KDKK4z4dmNMS2t85-38" target="sAvkdL1R1kglVFHzMzW9-39" edge="1">
          <mxGeometry relative="1" as="geometry">
            <mxPoint x="890" y="1250" as="targetPoint" />
            <mxPoint x="810" y="1250" as="sourcePoint" />
          </mxGeometry>
        </mxCell>
        <mxCell id="sAvkdL1R1kglVFHzMzW9-43" value="" style="edgeStyle=orthogonalEdgeStyle;rounded=1;orthogonalLoop=1;jettySize=auto;html=1;entryX=1;entryY=0.5;entryDx=0;entryDy=0;exitX=0.5;exitY=1;exitDx=0;exitDy=0;strokeColor=#FF8000;shadow=1;fixDash=0;" parent="1" source="sAvkdL1R1kglVFHzMzW9-35" target="wc3QQ4p2gTh6pkiNsGsL-7" edge="1">
          <mxGeometry relative="1" as="geometry">
            <mxPoint x="750" y="1500" as="targetPoint" />
            <Array as="points">
              <mxPoint x="750" y="1560" />
              <mxPoint x="1630" y="1560" />
              <mxPoint x="1630" y="490" />
            </Array>
          </mxGeometry>
        </mxCell>
        <mxCell id="sAvkdL1R1kglVFHzMzW9-35" value="Proceed To Microservice" style="rounded=1;whiteSpace=wrap;html=1;shadow=1;fixDash=0;" parent="1" vertex="1">
          <mxGeometry x="690" y="1360" width="120" height="60" as="geometry" />
        </mxCell>
        <mxCell id="sAvkdL1R1kglVFHzMzW9-37" value="403&lt;br&gt;FORBIDDEN" style="rounded=1;whiteSpace=wrap;html=1;strokeColor=#FF3333;shadow=1;fixDash=0;" parent="1" vertex="1">
          <mxGeometry x="870" y="1130" width="120" height="60" as="geometry" />
        </mxCell>
        <mxCell id="sAvkdL1R1kglVFHzMzW9-39" value="401&lt;br&gt;UNAUTHORIZED" style="rounded=1;whiteSpace=wrap;html=1;shadow=1;fixDash=0;" parent="1" vertex="1">
          <mxGeometry x="870" y="1360" width="120" height="60" as="geometry" />
        </mxCell>
        <mxCell id="sAvkdL1R1kglVFHzMzW9-48" value="" style="edgeStyle=orthogonalEdgeStyle;rounded=1;orthogonalLoop=1;jettySize=auto;html=1;exitX=0.5;exitY=1;exitDx=0;exitDy=0;shadow=1;fixDash=0;" parent="1" source="hLY5KDKK4z4dmNMS2t85-39" target="sAvkdL1R1kglVFHzMzW9-47" edge="1">
          <mxGeometry relative="1" as="geometry">
            <mxPoint x="1230" y="660" as="sourcePoint" />
          </mxGeometry>
        </mxCell>
        <mxCell id="sAvkdL1R1kglVFHzMzW9-46" value="AUTHORIZATION" style="text;html=1;strokeColor=none;fillColor=none;align=center;verticalAlign=middle;whiteSpace=wrap;rounded=1;shadow=1;fixDash=0;" parent="1" vertex="1">
          <mxGeometry x="1230" y="570" width="140" height="30" as="geometry" />
        </mxCell>
        <mxCell id="sAvkdL1R1kglVFHzMzW9-50" value="" style="edgeStyle=orthogonalEdgeStyle;rounded=1;orthogonalLoop=1;jettySize=auto;html=1;shadow=1;fixDash=0;" parent="1" source="sAvkdL1R1kglVFHzMzW9-47" target="sAvkdL1R1kglVFHzMzW9-49" edge="1">
          <mxGeometry relative="1" as="geometry" />
        </mxCell>
        <mxCell id="sAvkdL1R1kglVFHzMzW9-60" value="" style="edgeStyle=orthogonalEdgeStyle;rounded=1;orthogonalLoop=1;jettySize=auto;html=1;entryX=0.5;entryY=0;entryDx=0;entryDy=0;entryPerimeter=0;strokeColor=#FFFF00;shadow=1;fixDash=0;" parent="1" source="sAvkdL1R1kglVFHzMzW9-47" target="sAvkdL1R1kglVFHzMzW9-58" edge="1">
          <mxGeometry relative="1" as="geometry">
            <mxPoint x="1090" y="769.9999999999998" as="targetPoint" />
          </mxGeometry>
        </mxCell>
        <mxCell id="sAvkdL1R1kglVFHzMzW9-65" value="" style="edgeStyle=orthogonalEdgeStyle;rounded=1;orthogonalLoop=1;jettySize=auto;html=1;entryX=0.5;entryY=0;entryDx=0;entryDy=0;strokeColor=#FF3333;shadow=1;fixDash=0;" parent="1" source="sAvkdL1R1kglVFHzMzW9-47" target="sAvkdL1R1kglVFHzMzW9-63" edge="1">
          <mxGeometry relative="1" as="geometry">
            <mxPoint x="1370" y="769.9999999999998" as="targetPoint" />
            <Array as="points">
              <mxPoint x="1400" y="770" />
              <mxPoint x="1400" y="900" />
            </Array>
          </mxGeometry>
        </mxCell>
        <mxCell id="sAvkdL1R1kglVFHzMzW9-47" value="Get User" style="rounded=1;whiteSpace=wrap;html=1;shadow=1;fixDash=0;" parent="1" vertex="1">
          <mxGeometry x="1170" y="740" width="120" height="60" as="geometry" />
        </mxCell>
        <mxCell id="sAvkdL1R1kglVFHzMzW9-52" value="" style="edgeStyle=orthogonalEdgeStyle;rounded=1;orthogonalLoop=1;jettySize=auto;html=1;entryX=0.5;entryY=0;entryDx=0;entryDy=0;shadow=1;fixDash=0;" parent="1" source="sAvkdL1R1kglVFHzMzW9-49" target="hLY5KDKK4z4dmNMS2t85-13" edge="1">
          <mxGeometry relative="1" as="geometry">
            <mxPoint x="1230" y="1020" as="targetPoint" />
          </mxGeometry>
        </mxCell>
        <mxCell id="sAvkdL1R1kglVFHzMzW9-49" value="Get Services" style="rounded=1;whiteSpace=wrap;html=1;shadow=1;fixDash=0;" parent="1" vertex="1">
          <mxGeometry x="1170" y="880" width="120" height="60" as="geometry" />
        </mxCell>
        <mxCell id="sAvkdL1R1kglVFHzMzW9-54" value="" style="edgeStyle=orthogonalEdgeStyle;rounded=1;orthogonalLoop=1;jettySize=auto;html=1;exitX=0.5;exitY=1;exitDx=0;exitDy=0;shadow=1;fixDash=0;" parent="1" source="hLY5KDKK4z4dmNMS2t85-13" target="sAvkdL1R1kglVFHzMzW9-53" edge="1">
          <mxGeometry relative="1" as="geometry">
            <mxPoint x="1230" y="1080" as="sourcePoint" />
          </mxGeometry>
        </mxCell>
        <mxCell id="sAvkdL1R1kglVFHzMzW9-67" value="" style="edgeStyle=orthogonalEdgeStyle;rounded=1;orthogonalLoop=1;jettySize=auto;html=1;strokeColor=#FF3333;exitX=1;exitY=0.5;exitDx=0;exitDy=0;shadow=1;fixDash=0;" parent="1" source="hLY5KDKK4z4dmNMS2t85-13" target="sAvkdL1R1kglVFHzMzW9-66" edge="1">
          <mxGeometry relative="1" as="geometry" />
        </mxCell>
        <mxCell id="oSW16cauQtbyfkLqCWLq-1" value="" style="edgeStyle=orthogonalEdgeStyle;rounded=1;orthogonalLoop=1;jettySize=auto;html=1;strokeColor=#FFFF00;entryX=0;entryY=0.5;entryDx=0;entryDy=0;shadow=1;fixDash=0;" parent="1" source="sAvkdL1R1kglVFHzMzW9-58" target="hLY5KDKK4z4dmNMS2t85-13" edge="1">
          <mxGeometry relative="1" as="geometry">
            <mxPoint x="1170" y="1050" as="targetPoint" />
          </mxGeometry>
        </mxCell>
        <mxCell id="sAvkdL1R1kglVFHzMzW9-56" value="" style="edgeStyle=orthogonalEdgeStyle;rounded=1;orthogonalLoop=1;jettySize=auto;html=1;shadow=1;fixDash=0;" parent="1" source="sAvkdL1R1kglVFHzMzW9-53" target="sAvkdL1R1kglVFHzMzW9-55" edge="1">
          <mxGeometry relative="1" as="geometry" />
        </mxCell>
        <mxCell id="sAvkdL1R1kglVFHzMzW9-53" value="Update Security Context Holder" style="rounded=1;whiteSpace=wrap;html=1;shadow=1;fixDash=0;" parent="1" vertex="1">
          <mxGeometry x="1170" y="1160" width="120" height="60" as="geometry" />
        </mxCell>
        <mxCell id="sAvkdL1R1kglVFHzMzW9-55" value="Proceed To &lt;br&gt;Controller" style="rounded=1;whiteSpace=wrap;html=1;shadow=1;fixDash=0;" parent="1" vertex="1">
          <mxGeometry x="1170" y="1300" width="120" height="60" as="geometry" />
        </mxCell>
        <mxCell id="sAvkdL1R1kglVFHzMzW9-58" value="" style="shape=cylinder3;whiteSpace=wrap;html=1;boundedLbl=1;backgroundOutline=1;size=15;rounded=1;shadow=1;fixDash=0;" parent="1" vertex="1">
          <mxGeometry x="1050" y="1010" width="60" height="80" as="geometry" />
        </mxCell>
        <mxCell id="sAvkdL1R1kglVFHzMzW9-62" value="" style="endArrow=classic;html=1;rounded=1;exitX=1;exitY=0.5;exitDx=0;exitDy=0;entryX=0.5;entryY=0;entryDx=0;entryDy=0;strokeColor=#FF3333;shadow=1;fixDash=0;" parent="1" source="hLY5KDKK4z4dmNMS2t85-39" target="sAvkdL1R1kglVFHzMzW9-63" edge="1">
          <mxGeometry width="50" height="50" relative="1" as="geometry">
            <mxPoint x="1290" y="630" as="sourcePoint" />
            <mxPoint x="1410" y="760" as="targetPoint" />
            <Array as="points">
              <mxPoint x="1410" y="630" />
            </Array>
          </mxGeometry>
        </mxCell>
        <mxCell id="sAvkdL1R1kglVFHzMzW9-63" value="401&lt;br&gt;FORBIDDEN" style="rounded=1;whiteSpace=wrap;html=1;shadow=1;fixDash=0;" parent="1" vertex="1">
          <mxGeometry x="1350" y="900" width="120" height="60" as="geometry" />
        </mxCell>
        <mxCell id="sAvkdL1R1kglVFHzMzW9-66" value="401&lt;br&gt;UNAUTHORIZED" style="rounded=1;whiteSpace=wrap;html=1;shadow=1;fixDash=0;" parent="1" vertex="1">
          <mxGeometry x="1350" y="1170" width="120" height="60" as="geometry" />
        </mxCell>
        <mxCell id="sAvkdL1R1kglVFHzMzW9-70" value="" style="edgeStyle=orthogonalEdgeStyle;rounded=1;orthogonalLoop=1;jettySize=auto;html=1;entryX=0;entryY=0.5;entryDx=0;entryDy=0;shadow=1;fixDash=0;" parent="1" source="sAvkdL1R1kglVFHzMzW9-68" target="wc3QQ4p2gTh6pkiNsGsL-7" edge="1">
          <mxGeometry relative="1" as="geometry">
            <mxPoint x="1085" y="480.05882352941194" as="targetPoint" />
          </mxGeometry>
        </mxCell>
        <mxCell id="sAvkdL1R1kglVFHzMzW9-68" value="Frontend" style="shape=umlActor;verticalLabelPosition=bottom;verticalAlign=top;html=1;outlineConnect=0;rounded=1;shadow=1;fixDash=0;" parent="1" vertex="1">
          <mxGeometry x="1040" y="451" width="30" height="60" as="geometry" />
        </mxCell>
        <mxCell id="sAvkdL1R1kglVFHzMzW9-72" value="Direct Request" style="text;html=1;strokeColor=none;fillColor=none;align=center;verticalAlign=middle;whiteSpace=wrap;rounded=1;shadow=1;fixDash=0;" parent="1" vertex="1">
          <mxGeometry x="1050" y="451" width="140" height="30" as="geometry" />
        </mxCell>
        <mxCell id="sAvkdL1R1kglVFHzMzW9-73" value="Caching" style="text;html=1;strokeColor=none;fillColor=none;align=center;verticalAlign=middle;whiteSpace=wrap;rounded=1;shadow=1;fixDash=0;" parent="1" vertex="1">
          <mxGeometry x="990" y="1035" width="60" height="30" as="geometry" />
        </mxCell>
        <mxCell id="sAvkdL1R1kglVFHzMzW9-74" value="JWT SECRET" style="text;html=1;strokeColor=none;fillColor=none;align=center;verticalAlign=middle;whiteSpace=wrap;rounded=1;shadow=1;fixDash=0;" parent="1" vertex="1">
          <mxGeometry x="810" y="460" width="140" height="30" as="geometry" />
        </mxCell>
        <mxCell id="sAvkdL1R1kglVFHzMzW9-75" value="EXPIRATION" style="text;html=1;strokeColor=none;fillColor=none;align=center;verticalAlign=middle;whiteSpace=wrap;rounded=1;shadow=1;fixDash=0;" parent="1" vertex="1">
          <mxGeometry x="810" y="490" width="140" height="30" as="geometry" />
        </mxCell>
        <mxCell id="sAvkdL1R1kglVFHzMzW9-80" value="Kafka Cluster" style="swimlane;whiteSpace=wrap;html=1;rounded=1;shadow=1;fixDash=0;" parent="1" vertex="1">
          <mxGeometry x="420" y="1680" width="200" height="200" as="geometry" />
        </mxCell>
        <mxCell id="sAvkdL1R1kglVFHzMzW9-81" value="login-[m1 | m2 | ...]&lt;br&gt;-event" style="rounded=1;whiteSpace=wrap;html=1;shadow=1;fixDash=0;" parent="sAvkdL1R1kglVFHzMzW9-80" vertex="1">
          <mxGeometry x="10" y="40" width="120" height="60" as="geometry" />
        </mxCell>
        <mxCell id="sAvkdL1R1kglVFHzMzW9-82" value="logout-[m1 | m2 | ...]&lt;br&gt;-event" style="rounded=1;whiteSpace=wrap;html=1;shadow=1;fixDash=0;" parent="sAvkdL1R1kglVFHzMzW9-80" vertex="1">
          <mxGeometry x="10" y="120" width="120" height="60" as="geometry" />
        </mxCell>
        <mxCell id="sAvkdL1R1kglVFHzMzW9-87" value="" style="endArrow=classic;html=1;rounded=1;exitX=1;exitY=0;exitDx=0;exitDy=0;entryX=0.5;entryY=0;entryDx=0;entryDy=0;strokeColor=#FF66FF;shadow=1;fixDash=0;" parent="1" source="wc3QQ4p2gTh6pkiNsGsL-7" target="sAvkdL1R1kglVFHzMzW9-88" edge="1">
          <mxGeometry width="50" height="50" relative="1" as="geometry">
            <mxPoint x="1350" y="630" as="sourcePoint" />
            <mxPoint x="1770" y="1660" as="targetPoint" />
            <Array as="points">
              <mxPoint x="1770" y="451" />
            </Array>
          </mxGeometry>
        </mxCell>
        <mxCell id="sAvkdL1R1kglVFHzMzW9-92" value="" style="edgeStyle=orthogonalEdgeStyle;rounded=1;orthogonalLoop=1;jettySize=auto;html=1;entryX=0.5;entryY=0;entryDx=0;entryDy=0;exitX=1;exitY=0.5;exitDx=0;exitDy=0;shadow=1;fixDash=0;" parent="1" source="sAvkdL1R1kglVFHzMzW9-88" target="sAvkdL1R1kglVFHzMzW9-90" edge="1">
          <mxGeometry relative="1" as="geometry">
            <mxPoint x="1910" y="1630" as="targetPoint" />
          </mxGeometry>
        </mxCell>
        <mxCell id="sAvkdL1R1kglVFHzMzW9-88" value="Consumer" style="rounded=1;whiteSpace=wrap;html=1;shadow=1;fixDash=0;" parent="1" vertex="1">
          <mxGeometry x="1710" y="1600" width="120" height="60" as="geometry" />
        </mxCell>
        <mxCell id="sAvkdL1R1kglVFHzMzW9-94" value="" style="edgeStyle=orthogonalEdgeStyle;rounded=1;orthogonalLoop=1;jettySize=auto;html=1;exitX=0;exitY=0.5;exitDx=0;exitDy=0;entryX=0.5;entryY=0;entryDx=0;entryDy=0;shadow=1;fixDash=0;" parent="1" source="sAvkdL1R1kglVFHzMzW9-88" target="sAvkdL1R1kglVFHzMzW9-89" edge="1">
          <mxGeometry relative="1" as="geometry">
            <mxPoint x="1650" y="1630" as="targetPoint" />
          </mxGeometry>
        </mxCell>
        <mxCell id="sAvkdL1R1kglVFHzMzW9-96" value="" style="edgeStyle=orthogonalEdgeStyle;rounded=1;orthogonalLoop=1;jettySize=auto;html=1;entryX=0.5;entryY=0;entryDx=0;entryDy=0;shadow=1;fixDash=0;" parent="1" source="sAvkdL1R1kglVFHzMzW9-89" target="hLY5KDKK4z4dmNMS2t85-16" edge="1">
          <mxGeometry relative="1" as="geometry">
            <mxPoint x="1630" y="1850" as="targetPoint" />
          </mxGeometry>
        </mxCell>
        <mxCell id="sAvkdL1R1kglVFHzMzW9-89" value="login-[m1 | m2 | ...]&lt;br&gt;-event" style="rounded=1;whiteSpace=wrap;html=1;strokeColor=#66FFFF;shadow=1;fixDash=0;" parent="1" vertex="1">
          <mxGeometry x="1570" y="1710" width="120" height="60" as="geometry" />
        </mxCell>
        <mxCell id="sAvkdL1R1kglVFHzMzW9-104" value="" style="edgeStyle=orthogonalEdgeStyle;rounded=1;orthogonalLoop=1;jettySize=auto;html=1;entryX=0.5;entryY=0;entryDx=0;entryDy=0;shadow=1;fixDash=0;" parent="1" source="sAvkdL1R1kglVFHzMzW9-90" target="sAvkdL1R1kglVFHzMzW9-105" edge="1">
          <mxGeometry relative="1" as="geometry">
            <mxPoint x="1910" y="1810" as="targetPoint" />
          </mxGeometry>
        </mxCell>
        <mxCell id="sAvkdL1R1kglVFHzMzW9-90" value="logout-[m1 | m2 | ...]&lt;br&gt;-event" style="rounded=1;whiteSpace=wrap;html=1;strokeColor=#66FFFF;shadow=1;fixDash=0;" parent="1" vertex="1">
          <mxGeometry x="1850" y="1700" width="120" height="60" as="geometry" />
        </mxCell>
        <mxCell id="sAvkdL1R1kglVFHzMzW9-98" value="" style="edgeStyle=orthogonalEdgeStyle;rounded=1;orthogonalLoop=1;jettySize=auto;html=1;shadow=1;fixDash=0;" parent="1" source="hLY5KDKK4z4dmNMS2t85-16" target="sAvkdL1R1kglVFHzMzW9-97" edge="1">
          <mxGeometry relative="1" as="geometry">
            <mxPoint x="1630" y="1910" as="sourcePoint" />
          </mxGeometry>
        </mxCell>
        <mxCell id="sAvkdL1R1kglVFHzMzW9-120" value="" style="edgeStyle=orthogonalEdgeStyle;rounded=1;orthogonalLoop=1;jettySize=auto;html=1;strokeColor=#FF3333;exitX=1;exitY=0.5;exitDx=0;exitDy=0;entryX=0.5;entryY=0;entryDx=0;entryDy=0;shadow=1;fixDash=0;" parent="1" source="hLY5KDKK4z4dmNMS2t85-16" target="sAvkdL1R1kglVFHzMzW9-119" edge="1">
          <mxGeometry relative="1" as="geometry">
            <mxPoint x="1690" y="1880" as="sourcePoint" />
            <Array as="points">
              <mxPoint x="1760" y="1880" />
            </Array>
          </mxGeometry>
        </mxCell>
        <mxCell id="hLY5KDKK4z4dmNMS2t85-12" value="" style="edgeStyle=orthogonalEdgeStyle;rounded=1;orthogonalLoop=1;jettySize=auto;html=1;strokeColor=#FFFF33;exitX=0.5;exitY=1;exitDx=0;exitDy=0;exitPerimeter=0;entryX=0;entryY=0.5;entryDx=0;entryDy=0;shadow=1;fixDash=0;" parent="1" source="sAvkdL1R1kglVFHzMzW9-58" target="hLY5KDKK4z4dmNMS2t85-16" edge="1">
          <mxGeometry relative="1" as="geometry">
            <mxPoint x="1290" y="1870" as="sourcePoint" />
            <mxPoint x="1570" y="1880" as="targetPoint" />
            <Array as="points">
              <mxPoint x="1100" y="1090" />
              <mxPoint x="1100" y="1880" />
            </Array>
          </mxGeometry>
        </mxCell>
        <mxCell id="sAvkdL1R1kglVFHzMzW9-100" value="" style="edgeStyle=orthogonalEdgeStyle;rounded=1;orthogonalLoop=1;jettySize=auto;html=1;shadow=1;fixDash=0;" parent="1" source="sAvkdL1R1kglVFHzMzW9-97" target="sAvkdL1R1kglVFHzMzW9-99" edge="1">
          <mxGeometry relative="1" as="geometry" />
        </mxCell>
        <mxCell id="sAvkdL1R1kglVFHzMzW9-110" value="" style="edgeStyle=orthogonalEdgeStyle;rounded=1;orthogonalLoop=1;jettySize=auto;html=1;strokeColor=#FFFF33;exitX=0.5;exitY=1;exitDx=0;exitDy=0;exitPerimeter=0;shadow=1;fixDash=0;" parent="1" source="sAvkdL1R1kglVFHzMzW9-58" target="sAvkdL1R1kglVFHzMzW9-97" edge="1">
          <mxGeometry relative="1" as="geometry">
            <mxPoint x="1490" y="2020" as="sourcePoint" />
            <Array as="points">
              <mxPoint x="1080" y="2020" />
            </Array>
          </mxGeometry>
        </mxCell>
        <mxCell id="sAvkdL1R1kglVFHzMzW9-97" value="Get User By Id" style="whiteSpace=wrap;html=1;rounded=1;shadow=1;fixDash=0;" parent="1" vertex="1">
          <mxGeometry x="1570" y="1990" width="120" height="60" as="geometry" />
        </mxCell>
        <mxCell id="sAvkdL1R1kglVFHzMzW9-102" value="" style="edgeStyle=orthogonalEdgeStyle;rounded=1;orthogonalLoop=1;jettySize=auto;html=1;entryX=0.5;entryY=1;entryDx=0;entryDy=0;entryPerimeter=0;strokeColor=#FFFF33;shadow=1;fixDash=0;" parent="1" source="sAvkdL1R1kglVFHzMzW9-99" target="sAvkdL1R1kglVFHzMzW9-58" edge="1">
          <mxGeometry relative="1" as="geometry">
            <mxPoint x="1120" y="1840" as="targetPoint" />
            <Array as="points">
              <mxPoint x="1070" y="2160" />
              <mxPoint x="1070" y="1090" />
            </Array>
          </mxGeometry>
        </mxCell>
        <mxCell id="sAvkdL1R1kglVFHzMzW9-99" value="Set Logged In" style="whiteSpace=wrap;html=1;rounded=1;shadow=1;fixDash=0;" parent="1" vertex="1">
          <mxGeometry x="1570" y="2130" width="120" height="60" as="geometry" />
        </mxCell>
        <mxCell id="sAvkdL1R1kglVFHzMzW9-108" value="" style="edgeStyle=orthogonalEdgeStyle;rounded=1;orthogonalLoop=1;jettySize=auto;html=1;shadow=1;fixDash=0;" parent="1" source="sAvkdL1R1kglVFHzMzW9-105" target="sAvkdL1R1kglVFHzMzW9-107" edge="1">
          <mxGeometry relative="1" as="geometry" />
        </mxCell>
        <mxCell id="sAvkdL1R1kglVFHzMzW9-112" value="" style="edgeStyle=orthogonalEdgeStyle;rounded=1;orthogonalLoop=1;jettySize=auto;html=1;strokeColor=#FFFF33;exitX=0.145;exitY=1;exitDx=0;exitDy=-4.35;exitPerimeter=0;shadow=1;fixDash=0;" parent="1" source="sAvkdL1R1kglVFHzMzW9-58" target="sAvkdL1R1kglVFHzMzW9-105" edge="1">
          <mxGeometry relative="1" as="geometry">
            <Array as="points">
              <mxPoint x="1059" y="1120" />
              <mxPoint x="1060" y="2210" />
              <mxPoint x="1800" y="2210" />
              <mxPoint x="1800" y="2010" />
            </Array>
            <mxPoint x="1070" y="1120" as="sourcePoint" />
          </mxGeometry>
        </mxCell>
        <mxCell id="sAvkdL1R1kglVFHzMzW9-105" value="Get User By Id" style="rounded=1;whiteSpace=wrap;html=1;shadow=1;fixDash=0;" parent="1" vertex="1">
          <mxGeometry x="1850" y="1980" width="120" height="60" as="geometry" />
        </mxCell>
        <mxCell id="sAvkdL1R1kglVFHzMzW9-114" value="" style="edgeStyle=orthogonalEdgeStyle;rounded=1;orthogonalLoop=1;jettySize=auto;html=1;exitX=0.5;exitY=1;exitDx=0;exitDy=0;entryX=0;entryY=1;entryDx=0;entryDy=-15;entryPerimeter=0;strokeColor=#FFFF33;shadow=1;fixDash=0;" parent="1" target="sAvkdL1R1kglVFHzMzW9-58" edge="1">
          <mxGeometry relative="1" as="geometry">
            <mxPoint x="1049.9999999999998" y="1090" as="targetPoint" />
            <Array as="points">
              <mxPoint x="1891" y="2240" />
              <mxPoint x="1051" y="2240" />
              <mxPoint x="1051" y="1144" />
            </Array>
            <mxPoint x="1891.3" y="2184.35" as="sourcePoint" />
          </mxGeometry>
        </mxCell>
        <mxCell id="sAvkdL1R1kglVFHzMzW9-107" value="Set Logged Out" style="rounded=1;whiteSpace=wrap;html=1;shadow=1;fixDash=0;" parent="1" vertex="1">
          <mxGeometry x="1850" y="2120" width="120" height="60" as="geometry" />
        </mxCell>
        <mxCell id="sAvkdL1R1kglVFHzMzW9-117" value="" style="endArrow=classic;html=1;rounded=1;exitX=1;exitY=0.5;exitDx=0;exitDy=0;entryX=0;entryY=0.5;entryDx=0;entryDy=0;strokeColor=#66FFFF;shadow=1;fixDash=0;" parent="1" source="sAvkdL1R1kglVFHzMzW9-81" target="sAvkdL1R1kglVFHzMzW9-89" edge="1">
          <mxGeometry width="50" height="50" relative="1" as="geometry">
            <mxPoint x="280" y="1810" as="sourcePoint" />
            <mxPoint x="330" y="1760" as="targetPoint" />
          </mxGeometry>
        </mxCell>
        <mxCell id="sAvkdL1R1kglVFHzMzW9-118" value="" style="endArrow=classic;html=1;rounded=1;exitX=1;exitY=0.5;exitDx=0;exitDy=0;entryX=0;entryY=0.5;entryDx=0;entryDy=0;strokeColor=#66FFFF;shadow=1;fixDash=0;" parent="1" source="sAvkdL1R1kglVFHzMzW9-82" target="sAvkdL1R1kglVFHzMzW9-90" edge="1">
          <mxGeometry width="50" height="50" relative="1" as="geometry">
            <mxPoint x="590" y="1960" as="sourcePoint" />
            <mxPoint x="640" y="1910" as="targetPoint" />
            <Array as="points">
              <mxPoint x="1820" y="1820" />
              <mxPoint x="1820" y="1730" />
            </Array>
          </mxGeometry>
        </mxCell>
        <mxCell id="sAvkdL1R1kglVFHzMzW9-126" value="" style="edgeStyle=orthogonalEdgeStyle;rounded=1;orthogonalLoop=1;jettySize=auto;html=1;entryX=0.5;entryY=1;entryDx=0;entryDy=0;entryPerimeter=0;strokeColor=#FFFF33;shadow=1;fixDash=0;" parent="1" source="sAvkdL1R1kglVFHzMzW9-119" target="sAvkdL1R1kglVFHzMzW9-58" edge="1">
          <mxGeometry relative="1" as="geometry">
            <mxPoint x="1620" y="1950" as="targetPoint" />
            <Array as="points">
              <mxPoint x="1090" y="1950" />
              <mxPoint x="1090" y="1090" />
            </Array>
          </mxGeometry>
        </mxCell>
        <mxCell id="sAvkdL1R1kglVFHzMzW9-119" value="Create User with Default Access&lt;br&gt;And Set Logged In" style="rounded=1;whiteSpace=wrap;html=1;shadow=1;fixDash=0;" parent="1" vertex="1">
          <mxGeometry x="1700" y="1920" width="120" height="60" as="geometry" />
        </mxCell>
        <mxCell id="oSW16cauQtbyfkLqCWLq-2" value="Direct Request" style="text;html=1;strokeColor=none;fillColor=none;align=center;verticalAlign=middle;whiteSpace=wrap;rounded=1;shadow=1;fixDash=0;" parent="1" vertex="1">
          <mxGeometry x="1400" y="500" width="140" height="30" as="geometry" />
        </mxCell>
        <mxCell id="hLY5KDKK4z4dmNMS2t85-7" value="" style="edgeStyle=orthogonalEdgeStyle;rounded=1;orthogonalLoop=1;jettySize=auto;html=1;exitX=1;exitY=0;exitDx=0;exitDy=27.5;exitPerimeter=0;entryX=0;entryY=0.5;entryDx=0;entryDy=0;strokeColor=#FFFF66;shadow=1;fixDash=0;" parent="1" source="wc3QQ4p2gTh6pkiNsGsL-62" target="hLY5KDKK4z4dmNMS2t85-19" edge="1">
          <mxGeometry relative="1" as="geometry">
            <mxPoint x="-30" y="720" as="targetPoint" />
            <mxPoint x="-130" y="1415" as="sourcePoint" />
            <Array as="points">
              <mxPoint x="-140" y="1415" />
              <mxPoint x="-80" y="1415" />
              <mxPoint x="-80" y="740" />
            </Array>
          </mxGeometry>
        </mxCell>
        <mxCell id="hLY5KDKK4z4dmNMS2t85-13" value="&lt;span style=&quot;caret-color: rgb(240, 240, 240); font-family: Helvetica; font-size: 12px; font-style: normal; font-variant-caps: normal; font-weight: 400; letter-spacing: normal; text-align: center; text-indent: 0px; text-transform: none; word-spacing: 0px; -webkit-text-stroke-width: 0px; text-decoration: none; float: none; display: inline !important;&quot;&gt;Validate Request&lt;/span&gt;&lt;br style=&quot;border-color: rgb(0, 0, 0); caret-color: rgb(240, 240, 240); font-family: Helvetica; font-size: 12px; font-style: normal; font-variant-caps: normal; font-weight: 400; letter-spacing: normal; text-align: center; text-indent: 0px; text-transform: none; word-spacing: 0px; -webkit-text-stroke-width: 0px; text-decoration: none;&quot;&gt;&lt;span style=&quot;caret-color: rgb(240, 240, 240); font-family: Helvetica; font-size: 12px; font-style: normal; font-variant-caps: normal; font-weight: 400; letter-spacing: normal; text-align: center; text-indent: 0px; text-transform: none; word-spacing: 0px; -webkit-text-stroke-width: 0px; text-decoration: none; float: none; display: inline !important;&quot;&gt;and check&lt;span class=&quot;Apple-converted-space&quot;&gt;&amp;nbsp;&lt;/span&gt;&lt;/span&gt;&lt;br style=&quot;border-color: rgb(0, 0, 0); caret-color: rgb(240, 240, 240); font-family: Helvetica; font-size: 12px; font-style: normal; font-variant-caps: normal; font-weight: 400; letter-spacing: normal; text-align: center; text-indent: 0px; text-transform: none; word-spacing: 0px; -webkit-text-stroke-width: 0px; text-decoration: none;&quot;&gt;&lt;span style=&quot;caret-color: rgb(240, 240, 240); font-family: Helvetica; font-size: 12px; font-style: normal; font-variant-caps: normal; font-weight: 400; letter-spacing: normal; text-align: center; text-indent: 0px; text-transform: none; word-spacing: 0px; -webkit-text-stroke-width: 0px; text-decoration: none; float: none; display: inline !important;&quot;&gt;if Logged In&lt;/span&gt;" style="rhombus;whiteSpace=wrap;html=1;rounded=1;shadow=1;fixDash=0;" parent="1" vertex="1">
          <mxGeometry x="1150" y="985" width="160" height="130" as="geometry" />
        </mxCell>
        <mxCell id="hLY5KDKK4z4dmNMS2t85-17" value="" style="edgeStyle=orthogonalEdgeStyle;rounded=1;orthogonalLoop=1;jettySize=auto;html=1;shadow=1;fixDash=0;" parent="1" target="hLY5KDKK4z4dmNMS2t85-16" edge="1">
          <mxGeometry relative="1" as="geometry">
            <mxPoint x="1630" y="1910" as="sourcePoint" />
            <mxPoint x="1630" y="1990" as="targetPoint" />
          </mxGeometry>
        </mxCell>
        <mxCell id="hLY5KDKK4z4dmNMS2t85-16" value="Check User Existence" style="rhombus;whiteSpace=wrap;html=1;strokeColor=#33FF33;rounded=1;shadow=1;fixDash=0;" parent="1" vertex="1">
          <mxGeometry x="1580" y="1830" width="100" height="100" as="geometry" />
        </mxCell>
        <mxCell id="hLY5KDKK4z4dmNMS2t85-29" value="" style="edgeStyle=orthogonalEdgeStyle;rounded=1;orthogonalLoop=1;jettySize=auto;html=1;strokeColor=#FF3333;shadow=1;fixDash=0;" parent="1" source="hLY5KDKK4z4dmNMS2t85-19" target="sAvkdL1R1kglVFHzMzW9-4" edge="1">
          <mxGeometry relative="1" as="geometry" />
        </mxCell>
        <mxCell id="hLY5KDKK4z4dmNMS2t85-19" value="&lt;span style=&quot;caret-color: rgb(240, 240, 240); font-family: Helvetica; font-size: 12px; font-style: normal; font-variant-caps: normal; font-weight: 400; letter-spacing: normal; text-align: center; text-indent: 0px; text-transform: none; word-spacing: 0px; -webkit-text-stroke-width: 0px; text-decoration: none; float: none; display: inline !important;&quot;&gt;Validate User&lt;/span&gt;&lt;br style=&quot;border-color: rgb(0, 0, 0); caret-color: rgb(240, 240, 240); font-family: Helvetica; font-size: 12px; font-style: normal; font-variant-caps: normal; font-weight: 400; letter-spacing: normal; text-align: center; text-indent: 0px; text-transform: none; word-spacing: 0px; -webkit-text-stroke-width: 0px; text-decoration: none;&quot;&gt;&lt;span style=&quot;caret-color: rgb(240, 240, 240); font-family: Helvetica; font-size: 12px; font-style: normal; font-variant-caps: normal; font-weight: 400; letter-spacing: normal; text-align: center; text-indent: 0px; text-transform: none; word-spacing: 0px; -webkit-text-stroke-width: 0px; text-decoration: none; float: none; display: inline !important;&quot;&gt;Information&lt;/span&gt;" style="rhombus;whiteSpace=wrap;html=1;strokeColor=#33FF33;rounded=1;shadow=1;fixDash=0;" parent="1" vertex="1">
          <mxGeometry x="1.75" y="682.5" width="114.5" height="115" as="geometry" />
        </mxCell>
        <mxCell id="hLY5KDKK4z4dmNMS2t85-23" value="" style="edgeStyle=orthogonalEdgeStyle;rounded=1;orthogonalLoop=1;jettySize=auto;html=1;shadow=1;fixDash=0;" parent="1" source="hLY5KDKK4z4dmNMS2t85-21" target="wc3QQ4p2gTh6pkiNsGsL-42" edge="1">
          <mxGeometry relative="1" as="geometry" />
        </mxCell>
        <mxCell id="hLY5KDKK4z4dmNMS2t85-28" value="" style="edgeStyle=orthogonalEdgeStyle;rounded=1;orthogonalLoop=1;jettySize=auto;html=1;strokeColor=#FF3333;shadow=1;fixDash=0;" parent="1" source="hLY5KDKK4z4dmNMS2t85-21" target="hLY5KDKK4z4dmNMS2t85-27" edge="1">
          <mxGeometry relative="1" as="geometry" />
        </mxCell>
        <mxCell id="hLY5KDKK4z4dmNMS2t85-21" value="Token &lt;br&gt;Generate?" style="rhombus;whiteSpace=wrap;html=1;rounded=1;strokeColor=#33FF33;shadow=1;fixDash=0;" parent="1" vertex="1">
          <mxGeometry x="9" y="940" width="100" height="80" as="geometry" />
        </mxCell>
        <mxCell id="hLY5KDKK4z4dmNMS2t85-27" value="505&lt;br&gt;INTERNAL &lt;br&gt;SERVER EROR" style="whiteSpace=wrap;html=1;rounded=1;strokeColor=#FF3333;shadow=1;fixDash=0;" parent="1" vertex="1">
          <mxGeometry x="160" y="860" width="120" height="60" as="geometry" />
        </mxCell>
        <mxCell id="hLY5KDKK4z4dmNMS2t85-33" value="" style="edgeStyle=orthogonalEdgeStyle;rounded=1;orthogonalLoop=1;jettySize=auto;html=1;entryX=0.5;entryY=0;entryDx=0;entryDy=0;entryPerimeter=0;strokeColor=#FFFF66;shadow=1;fixDash=0;" parent="1" source="hLY5KDKK4z4dmNMS2t85-30" target="wc3QQ4p2gTh6pkiNsGsL-62" edge="1">
          <mxGeometry relative="1" as="geometry">
            <mxPoint x="-170" y="1055" as="targetPoint" />
          </mxGeometry>
        </mxCell>
        <mxCell id="hLY5KDKK4z4dmNMS2t85-30" value="If able &lt;br&gt;to&lt;br&gt;&amp;nbsp;Create User" style="rhombus;whiteSpace=wrap;html=1;rounded=1;strokeColor=#33FF33;shadow=1;fixDash=0;" parent="1" vertex="1">
          <mxGeometry x="-225" y="840" width="110" height="110" as="geometry" />
        </mxCell>
        <mxCell id="hLY5KDKK4z4dmNMS2t85-35" value="" style="edgeStyle=orthogonalEdgeStyle;rounded=1;orthogonalLoop=1;jettySize=auto;html=1;exitX=0.5;exitY=1;exitDx=0;exitDy=0;shadow=1;fixDash=0;" parent="1" source="hLY5KDKK4z4dmNMS2t85-34" target="wc3QQ4p2gTh6pkiNsGsL-54" edge="1">
          <mxGeometry relative="1" as="geometry" />
        </mxCell>
        <mxCell id="hLY5KDKK4z4dmNMS2t85-34" value="Validate Token" style="rhombus;whiteSpace=wrap;html=1;strokeColor=#33FF33;rounded=1;shadow=1;fixDash=0;" parent="1" vertex="1">
          <mxGeometry x="350" y="670" width="100" height="100" as="geometry" />
        </mxCell>
        <mxCell id="hLY5KDKK4z4dmNMS2t85-37" value="" style="edgeStyle=orthogonalEdgeStyle;rounded=1;orthogonalLoop=1;jettySize=auto;html=1;exitX=0.5;exitY=1;exitDx=0;exitDy=0;shadow=1;fixDash=0;" parent="1" source="hLY5KDKK4z4dmNMS2t85-36" target="sAvkdL1R1kglVFHzMzW9-29" edge="1">
          <mxGeometry relative="1" as="geometry">
            <Array as="points" />
          </mxGeometry>
        </mxCell>
        <mxCell id="hLY5KDKK4z4dmNMS2t85-36" value="Validate Token" style="rhombus;whiteSpace=wrap;html=1;rounded=1;shadow=1;fixDash=0;" parent="1" vertex="1">
          <mxGeometry x="700" y="780" width="100" height="100" as="geometry" />
        </mxCell>
        <mxCell id="hLY5KDKK4z4dmNMS2t85-38" value="Validate &lt;br&gt;Request" style="rhombus;whiteSpace=wrap;html=1;rounded=1;shadow=1;fixDash=0;" parent="1" vertex="1">
          <mxGeometry x="700" y="1200" width="100" height="100" as="geometry" />
        </mxCell>
        <mxCell id="hLY5KDKK4z4dmNMS2t85-39" value="Validate Token" style="rhombus;whiteSpace=wrap;html=1;strokeColor=#33FF33;rounded=1;shadow=1;fixDash=0;" parent="1" vertex="1">
          <mxGeometry x="1180" y="580" width="100" height="100" as="geometry" />
        </mxCell>
        <mxCell id="0WNhurYRJjI0NBEl8yjE-1" value="" style="sketch=0;html=1;dashed=0;whitespace=wrap;fillColor=#2875E2;strokeColor=#ffffff;points=[[0.005,0.63,0],[0.1,0.2,0],[0.9,0.2,0],[0.5,0,0],[0.995,0.63,0],[0.72,0.99,0],[0.5,1,0],[0.28,0.99,0]];verticalLabelPosition=bottom;align=center;verticalAlign=top;shape=mxgraph.kubernetes.icon;prIcon=svc;hachureGap=4;jiggle=2;curveFitting=1;fontFamily=Architects Daughter;fontSource=https%3A%2F%2Ffonts.googleapis.com%2Fcss%3Ffamily%3DArchitects%2BDaughter;fontSize=20;" parent="1" vertex="1">
          <mxGeometry x="712" y="191" width="81" height="59" as="geometry" />
        </mxCell>
        <mxCell id="0WNhurYRJjI0NBEl8yjE-2" value="" style="sketch=0;html=1;dashed=0;whitespace=wrap;fillColor=#2875E2;strokeColor=#ffffff;points=[[0.005,0.63,0],[0.1,0.2,0],[0.9,0.2,0],[0.5,0,0],[0.995,0.63,0],[0.72,0.99,0],[0.5,1,0],[0.28,0.99,0]];verticalLabelPosition=bottom;align=center;verticalAlign=top;shape=mxgraph.kubernetes.icon;prIcon=c_role;hachureGap=4;jiggle=2;curveFitting=1;fontFamily=Architects Daughter;fontSource=https%3A%2F%2Ffonts.googleapis.com%2Fcss%3Ffamily%3DArchitects%2BDaughter;fontSize=20;" parent="1" vertex="1">
          <mxGeometry x="-30" y="398" width="50" height="48" as="geometry" />
        </mxCell>
        <mxCell id="0WNhurYRJjI0NBEl8yjE-3" value="" style="sketch=0;html=1;dashed=0;whitespace=wrap;fillColor=#2875E2;strokeColor=#ffffff;points=[[0.005,0.63,0],[0.1,0.2,0],[0.9,0.2,0],[0.5,0,0],[0.995,0.63,0],[0.72,0.99,0],[0.5,1,0],[0.28,0.99,0]];verticalLabelPosition=bottom;align=center;verticalAlign=top;shape=mxgraph.kubernetes.icon;prIcon=ing;hachureGap=4;jiggle=2;curveFitting=1;fontFamily=Architects Daughter;fontSource=https%3A%2F%2Ffonts.googleapis.com%2Fcss%3Ffamily%3DArchitects%2BDaughter;fontSize=20;" parent="1" vertex="1">
          <mxGeometry x="630" y="668" width="50" height="48" as="geometry" />
        </mxCell>
        <mxCell id="0WNhurYRJjI0NBEl8yjE-4" value="" style="sketch=0;html=1;dashed=0;whitespace=wrap;fillColor=#2875E2;strokeColor=#ffffff;points=[[0.005,0.63,0],[0.1,0.2,0],[0.9,0.2,0],[0.5,0,0],[0.995,0.63,0],[0.72,0.99,0],[0.5,1,0],[0.28,0.99,0]];verticalLabelPosition=bottom;align=center;verticalAlign=top;shape=mxgraph.kubernetes.icon;prIcon=master;hachureGap=4;jiggle=2;curveFitting=1;fontFamily=Architects Daughter;fontSource=https%3A%2F%2Ffonts.googleapis.com%2Fcss%3Ffamily%3DArchitects%2BDaughter;fontSize=20;" parent="1" vertex="1">
          <mxGeometry x="630" y="463" width="50" height="48" as="geometry" />
        </mxCell>
        <mxCell id="0WNhurYRJjI0NBEl8yjE-5" value="" style="sketch=0;html=1;dashed=0;whitespace=wrap;fillColor=#2875E2;strokeColor=#ffffff;points=[[0.005,0.63,0],[0.1,0.2,0],[0.9,0.2,0],[0.5,0,0],[0.995,0.63,0],[0.72,0.99,0],[0.5,1,0],[0.28,0.99,0]];verticalLabelPosition=bottom;align=center;verticalAlign=top;shape=mxgraph.kubernetes.icon;prIcon=pod;hachureGap=4;jiggle=2;curveFitting=1;fontFamily=Architects Daughter;fontSource=https%3A%2F%2Ffonts.googleapis.com%2Fcss%3Ffamily%3DArchitects%2BDaughter;fontSize=20;" parent="1" vertex="1">
          <mxGeometry x="1170" y="514" width="50" height="48" as="geometry" />
        </mxCell>
        <mxCell id="0WNhurYRJjI0NBEl8yjE-7" value="" style="sketch=0;html=1;dashed=0;whitespace=wrap;fillColor=#2875E2;strokeColor=#ffffff;points=[[0.005,0.63,0],[0.1,0.2,0],[0.9,0.2,0],[0.5,0,0],[0.995,0.63,0],[0.72,0.99,0],[0.5,1,0],[0.28,0.99,0]];verticalLabelPosition=bottom;align=center;verticalAlign=top;shape=mxgraph.kubernetes.icon;prIcon=pod;hachureGap=4;jiggle=2;curveFitting=1;fontFamily=Architects Daughter;fontSource=https%3A%2F%2Ffonts.googleapis.com%2Fcss%3Ffamily%3DArchitects%2BDaughter;fontSize=20;" parent="1" vertex="1">
          <mxGeometry x="1027" y="966" width="50" height="48" as="geometry" />
        </mxCell>
        <mxCell id="0WNhurYRJjI0NBEl8yjE-8" value="" style="sketch=0;html=1;dashed=0;whitespace=wrap;fillColor=#2875E2;strokeColor=#ffffff;points=[[0.005,0.63,0],[0.1,0.2,0],[0.9,0.2,0],[0.5,0,0],[0.995,0.63,0],[0.72,0.99,0],[0.5,1,0],[0.28,0.99,0]];verticalLabelPosition=bottom;align=center;verticalAlign=top;shape=mxgraph.kubernetes.icon;prIcon=pod;hachureGap=4;jiggle=2;curveFitting=1;fontFamily=Architects Daughter;fontSource=https%3A%2F%2Ffonts.googleapis.com%2Fcss%3Ffamily%3DArchitects%2BDaughter;fontSize=20;" parent="1" vertex="1">
          <mxGeometry x="-250" y="1351" width="50" height="48" as="geometry" />
        </mxCell>
      </root>
    </mxGraphModel>
  </diagram>
</mxfile>
